<?xml version="1.0" encoding="UTF-8"?> <svg xmlns="http://www.w3.org/2000/svg" xmlns:xlink="http://www.w3.org/1999/xlink" version="1.1" id="Layer_1" x="0px" y="0px" viewBox="0 0 2834.65 2834.65" style="enable-background:new 0 0 2834.65 2834.65;" xml:space="preserve"> <style type="text/css"> .st0{fill:#13C5F0;} .st1{fill:url(#SVGID_1_);} .st2{fill:#FFFFFF;} </style> <g> <g> <path class="st0" d="M2226.68,833.76l-708.65-409.14c-62.32-35.98-139.09-35.98-201.41,0L607.96,833.76 c-62.32,35.98-100.7,102.47-100.7,174.42v818.28c0,71.96,38.39,138.45,100.7,174.42l708.65,409.14 c62.32,35.98,139.09,35.98,201.41,0l708.65-409.14c62.32-35.98,100.7-102.47,100.7-174.42v-818.28 C2327.38,936.23,2289,869.74,2226.68,833.76z"></path> <linearGradient id="SVGID_1_" gradientUnits="userSpaceOnUse" x1="479.2637" y1="1796.3237" x2="2355.3806" y2="1038.3232"> <stop offset="0.1" style="stop-color:#E466B1"></stop> <stop offset="0.9" style="stop-color:#E466B1;stop-opacity:0"></stop> </linearGradient> <path class="st1" d="M2226.68,833.76l-708.65-409.14c-62.32-35.98-139.09-35.98-201.41,0L607.96,833.76 c-62.32,35.98-100.7,102.47-100.7,174.42v818.28c0,71.96,38.39,138.45,100.7,174.42l708.65,409.14 c62.32,35.98,139.09,35.98,201.41,0l708.65-409.14c62.32-35.98,100.7-102.47,100.7-174.42v-818.28 C2327.38,936.23,2289,869.74,2226.68,833.76z"></path> <path class="st0" d="M1417.32,2542.01c-59.69,0-119.39-15.37-172.63-46.1l-675.13-389.79 c-106.48-61.48-172.63-176.05-172.63-299.01v-779.57c0-122.96,66.15-237.53,172.63-299.01l675.13-389.79 c106.48-61.47,238.77-61.47,345.26,0l675.13,389.79c106.48,61.48,172.63,176.05,172.63,299.01v779.57 c0,122.95-66.15,237.53-172.63,299.01l-675.13,389.79C1536.71,2526.64,1477.01,2542.01,1417.32,2542.01z M1417.32,339.86 c-51.54,0-103.05,13.26-149.01,39.8L593.18,769.44c-91.91,53.07-149.01,151.96-149.01,258.09v779.57 c0,106.13,57.1,205.03,149.01,258.09l675.13,389.79c91.92,53.06,206.11,53.06,298.02,0l675.13-389.79 c91.91-53.07,149.01-151.96,149.01-258.09v-779.57c0-106.13-57.1-205.03-149.01-258.09l-675.13-389.79 C1520.38,353.13,1468.84,339.86,1417.32,339.86z"></path> <path class="st2" d="M2147.21,1808.04c0,18.99-10.13,36.53-26.57,46.03l-676.74,390.72c-16.44,9.49-36.7,9.49-53.15,0 l-676.7-390.69c-16.47-9.51-26.6-27.08-26.57-46.09l0.2-162.56c0.05-40.86,44.27-66.39,79.68-45.99l623.41,359.12 c16.44,9.47,36.68,9.46,53.1-0.03l237.17-136.93c35.02-20.22,35.53-70.59,0.93-91.51l-968.88-585.86 c-15.92-9.63-25.65-26.88-25.65-45.48v-72.15c0-18.99,10.13-36.53,26.57-46.03l676.74-390.72c16.44-9.49,36.7-9.49,53.15,0 l676.7,390.69c16.46,9.51,26.6,27.08,26.57,46.1l-0.2,162.55c-0.05,40.86-44.27,66.39-79.68,45.99l-623.41-359.12 c-16.44-9.47-36.68-9.46-53.1,0.03l-237.17,136.93c-35.02,20.22-35.53,70.59-0.93,91.51l968.88,585.86 c15.92,9.63,25.65,26.88,25.65,45.48V1808.04z"></path> </g> </g> </svg> 