<?xml version="1.0" encoding="UTF-8"?>
<svg xmlns="http://www.w3.org/2000/svg" id="Layer_1" data-name="Layer 1" viewBox="0 0 24 24">
  <path d="m23.359,10.848c-.099.101-.229.152-.359.152-.125,0-.251-.047-.348-.141l-2.652-2.571v15.212c0,.276-.224.5-.5.5s-.5-.224-.5-.5v-15.212l-2.652,2.57c-.197.193-.514.187-.707-.011-.191-.198-.187-.515.012-.707l2.793-2.707c.579-.579,1.53-.58,2.115.005l2.787,2.702c.198.192.203.509.012.707ZM8.848,3.859l2.652-2.57v6.212c0,.276.224.5.5.5s.5-.224.5-.5V1.288l2.652,2.571c.097.094.223.141.348.141.131,0,.261-.051.359-.152.191-.198.187-.515-.012-.707L13.061.439c-.585-.585-1.536-.584-2.115-.005l-2.793,2.707c-.198.192-.203.509-.012.707.193.198.51.204.707.011Zm-.848,5.141c.131,0,.261-.051.359-.152.191-.198.187-.515-.012-.707l-2.787-2.702c-.585-.585-1.536-.584-2.115-.005l-2.793,2.707c-.198.192-.203.509-.012.707.193.198.51.204.707.011l2.652-2.57v17.212c0,.276.224.5.5.5s.5-.224.5-.5V6.288l2.652,2.571c.097.094.223.141.348.141Zm2.495,4h3.01c.824,0,1.495.671,1.495,1.495,0,.276.224.5.5.5s.5-.224.5-.5c0-1.376-1.119-2.495-2.495-2.495h-1.005v-1.5c0-.276-.224-.5-.5-.5s-.5.224-.5.5v1.5h-1.005c-1.376,0-2.495,1.119-2.495,2.495,0,1.108.744,2.095,1.81,2.399l4.105,1.173c.639.182,1.085.773,1.085,1.438,0,.824-.671,1.495-1.495,1.495h-3.01c-.824,0-1.495-.671-1.495-1.495,0-.276-.224-.5-.5-.5s-.5.224-.5.5c0,1.376,1.119,2.495,2.495,2.495h1.005v1.5c0,.276.224.5.5.5s.5-.224.5-.5v-1.5h1.005c1.376,0,2.495-1.119,2.495-2.495,0-1.108-.744-2.095-1.81-2.399l-4.105-1.173c-.639-.182-1.085-.773-1.085-1.438,0-.824.671-1.495,1.495-1.495Z"/>
</svg>
