<?xml version="1.0" encoding="UTF-8"?>
<svg xmlns="http://www.w3.org/2000/svg" id="Layer_1" data-name="Layer 1" viewBox="0 0 24 24">
  <path d="m5.976,5.779c.83.336,1.557.971,2.326,1.643,1.169,1.021,2.379,2.078,4.039,2.078,2.104,0,3.866-1.439,4.443-3.395.766.56,1.521,1.396,2.29,2.655.094.155.259.24.427.24.089,0,.179-.023.261-.073.235-.144.31-.452.166-.687-.954-1.564-1.915-2.572-2.954-3.211.005-.094.028-.183.028-.279,0-2.619-2.09-4.75-4.659-4.75-2.755,0-5.038,1.11-6.98,3.394-.316.372-.432.854-.317,1.321.117.477.466.875.933,1.064Zm.146-1.738c1.74-2.046,3.774-3.041,6.219-3.041,1.946,0,3.528,1.57,3.638,3.536-1.047-.409-2.185-.536-3.479-.536-.276,0-.5.224-.5.5s.224.5.5.5c1.214,0,2.327.07,3.404.577-.369,1.67-1.823,2.923-3.563,2.923-1.285,0-2.304-.89-3.382-1.832-.797-.697-1.622-1.417-2.608-1.816-.172-.07-.295-.207-.336-.375-.022-.09-.037-.266.107-.436Zm16.838,8.859h0c-.195-.454-.583-.771-1.064-.869-.484-.099-.986.047-1.347.39-.679.646-1.526,1.116-2.424,1.613-1.347.746-2.74,1.518-3.551,2.95-.619,1.095-.771,2.364-.43,3.572.2.708.571,1.333,1.053,1.864-.815.353-1.714.58-2.697.58-.276,0-.5.224-.5.5s.224.5.5.5c1.302,0,2.493-.328,3.532-.858.126.086.241.184.376.259.733.405,1.528.597,2.313.597,1.67,0,3.294-.869,4.166-2.41,1.433-2.532,1.457-5.456.072-8.688Zm-.943,8.196c-.996,1.758-3.228,2.398-5.024,1.473,1.488-1.037,2.545-2.497,2.973-3.911.08-.264-.069-.543-.334-.623-.262-.08-.543.07-.623.334-.398,1.316-1.438,2.668-2.889,3.572-.474-.453-.831-1.013-1.013-1.656-.269-.95-.148-1.947.339-2.808.671-1.186,1.882-1.857,3.164-2.567.913-.506,1.857-1.029,2.629-1.764.1-.094.225-.145.354-.145.033,0,.067.003.102.01.092.019.259.081.346.284,1.256,2.931,1.248,5.556-.023,7.802Zm-12.936-6.297c-.536-1.179-1.494-2.074-2.699-2.519-.778-.287-1.597-.342-2.394-.21-.004-1.272.241-2.489.891-3.245.181-.209.156-.525-.053-.705-.209-.179-.525-.156-.705.054-.878,1.021-1.186,2.593-1.14,4.177-.075.031-.154.046-.228.081-2.384,1.113-3.432,3.985-2.335,6.401,1.201,2.646,3.479,4.372,6.77,5.128.11.025.221.038.331.038.376,0,.741-.145,1.02-.413.368-.354.53-.867.435-1.37-.04-.216-.048-.797-.052-1.107-.011-.795.145-1.54.294-2.261.263-1.267.535-2.577-.134-4.05h0Zm-.846,3.846c-.16.773-.326,1.573-.313,2.54.006.443.017.938.068,1.217.033.174-.021.343-.146.464-.117.113-.272.156-.433.121-2.971-.683-5.018-2.22-6.084-4.567-.853-1.88-.068-4.097,1.74-5.017.161,1.283.523,2.497.995,3.341.092.164.262.256.437.256.083,0,.167-.021.244-.063.241-.135.327-.439.192-.681-.442-.789-.768-1.971-.895-3.192.234-.046.47-.078.707-.078.434,0,.868.077,1.288.232.952.352,1.71,1.06,2.135,1.995.533,1.176.316,2.222.064,3.433Z"/>
</svg>
