<svg xmlns="http://www.w3.org/2000/svg" xmlns:xlink="http://www.w3.org/1999/xlink" id="Layer_1" x="0px" y="0px" viewBox="0 0 2851.1 3136.8" style="enable-background:new 0 0 2851.1 3136.8;" xml:space="preserve"> <style type="text/css"> .st0{fill:#13C5F0;} .st1{fill-rule:evenodd;clip-rule:evenodd;fill:#13C5F0;} </style> <g> <g> <g> <path class="st0" d="M1425.5,3139.7c-83.4,0-166.8-21.5-241.2-64.4l-943.2-544.6C92.4,2444.8,0,2284.8,0,2113V1023.9 C0,852.1,92.4,692,241.2,606.1l943.2-544.6c148.8-85.9,333.6-85.9,482.4,0l943.2,544.6c148.8,85.9,241.2,245.9,241.2,417.8V2113 c0,171.8-92.4,331.8-241.2,417.8l-943.2,544.6C1592.3,3118.3,1508.9,3139.7,1425.5,3139.7z M1425.5,63.2 c-72,0-144,18.6-208.2,55.6L274.1,663.3C145.8,737.5,66,875.6,66,1023.9V2113c0,148.3,79.8,286.4,208.2,360.6l943.2,544.6 c128.4,74.1,288,74.1,416.4,0l943.2-544.6c128.4-74.1,208.2-212.3,208.2-360.6V1023.9c0-148.3-79.8-286.4-208.2-360.6 l-943.2-544.6C1569.5,81.7,1497.5,63.2,1425.5,63.2z"></path> </g> </g> </g> <g id="Page-1"> <g id="Dribbble-Light-Preview" transform="translate(-180.000000, -7479.000000)"> <g id="icons" transform="translate(56.000000, 160.000000)"> <path id="linkedin-_x5B__x23_161_x5D_" class="st1" d="M2306.8,9566.8h-302.9v-530c0-145.4-64.1-226.5-179.2-226.5 c-125.2,0-199.5,84.5-199.5,226.5v530h-302.9v-984.4h302.9v110.7c0,0,95-166.8,309.2-166.8c214.2,0,372.3,130.7,372.3,401.2 V9566.8L2306.8,9566.8z M977.2,8425c-102.1,0-184.9-83.5-184.9-186.3c0-102.8,82.8-186.3,184.9-186.3 c102.1,0,184.8,83.5,184.8,186.3C1162.1,8341.5,1079.3,8425,977.2,8425L977.2,8425z M792.3,9566.8h378.6v-984.4H792.3V9566.8z"></path> </g> </g> </g> </svg>