<svg xmlns="http://www.w3.org/2000/svg" xmlns:xlink="http://www.w3.org/1999/xlink" id="Layer_1" x="0px" y="0px" viewBox="0 0 2851.1 3136.8" style="enable-background:new 0 0 2851.1 3136.8;" xml:space="preserve"> <style type="text/css"> .st0{fill:#13C5F0;} </style> <g> <g> <g> <path class="st0" d="M1425.5,3139.7c-83.4,0-166.8-21.5-241.2-64.4l-943.2-544.6C92.4,2444.8,0,2284.8,0,2113V1023.9 C0,852.1,92.4,692,241.2,606.1l943.2-544.6c148.8-85.9,333.6-85.9,482.4,0L2610,606.1c148.8,85.9,241.2,245.9,241.2,417.8V2113 c0,171.8-92.4,331.8-241.2,417.8l-943.2,544.6C1592.3,3118.3,1508.9,3139.7,1425.5,3139.7z M1425.5,63.2 c-72,0-144,18.6-208.2,55.6L274.1,663.3C145.8,737.5,66,875.6,66,1023.9V2113c0,148.3,79.8,286.4,208.2,360.6l943.2,544.6 c128.4,74.1,288,74.1,416.4,0l943.2-544.6c128.4-74.1,208.2-212.3,208.2-360.6V1023.9c0-148.3-79.8-286.4-208.2-360.6 l-943.2-544.6C1569.5,81.7,1497.5,63.2,1425.5,63.2z"></path> </g> </g> </g> <g id="SVGRepo_iconCarrier"> <path class="st0" d="M1499.6,1568.4c0,245.3-198.9,444.2-444.2,444.2c-245.3,0-444.2-198.9-444.2-444.2 c0-245.3,198.9-444.2,444.2-444.2C1300.8,1124.2,1499.6,1323.1,1499.6,1568.4z"></path> <path class="st0" d="M2240,1568.4c0,204.4-33.1,370.2-74,370.2s-74-165.7-74-370.2c0-204.4,33.1-370.2,74-370.2 S2240,1363.9,2240,1568.4z"></path> <path class="st0" d="M1795.8,2012.6c122.7,0,222.1-198.9,222.1-444.2c0-245.3-99.4-444.2-222.1-444.2s-222.1,198.9-222.1,444.2 C1573.7,1813.7,1673.1,2012.6,1795.8,2012.6z"></path> </g> </svg>