<svg xmlns="http://www.w3.org/2000/svg" xmlns:xlink="http://www.w3.org/1999/xlink" id="Layer_1" x="0px" y="0px" viewBox="0 0 2851.1 3136.8" style="enable-background:new 0 0 2851.1 3136.8;" xml:space="preserve"> <style type="text/css"> .st0{fill:#13C5F0;} </style> <g> <g> <g> <path class="st0" d="M1425.5,3139.7c-83.4,0-166.8-21.5-241.2-64.4l-943.2-544.6C92.4,2444.8,0,2284.8,0,2113V1023.9 C0,852.1,92.4,692,241.2,606.1l943.2-544.6c148.8-85.9,333.6-85.9,482.4,0L2610,606.1c148.8,85.9,241.2,245.9,241.2,417.8V2113 c0,171.8-92.4,331.8-241.2,417.8l-943.2,544.6C1592.3,3118.3,1508.9,3139.7,1425.5,3139.7z M1425.5,63.2 c-72,0-144,18.6-208.2,55.6L274.1,663.3C145.8,737.5,66,875.6,66,1023.9V2113c0,148.3,79.8,286.4,208.2,360.6l943.2,544.6 c128.4,74.1,288,74.1,416.4,0l943.2-544.6c128.4-74.1,208.2-212.3,208.2-360.6V1023.9c0-148.3-79.8-286.4-208.2-360.6 l-943.2-544.6C1569.5,81.7,1497.5,63.2,1425.5,63.2z"></path> </g> </g> </g> <g id="SVGRepo_iconCarrier"> <path class="st0" d="M1425.5,811.3c-149.7,0-296.1,44.4-420.6,127.6S783.3,1140.4,726,1278.7c-57.3,138.4-72.3,290.6-43,437.4 c29.2,146.8,101.3,281.8,207.2,387.7c105.8,105.8,240.8,178,387.7,207.2c146.8,29.2,299.1,14.2,437.4-43 c138.2-57.2,256.6-154.3,339.8-278.9c83.2-124.5,127.6-270.9,127.6-420.6c0-200.8-79.8-393.4-221.8-535.4 C1818.9,891.1,1626.3,811.3,1425.5,811.3z M1797.5,1329.9l-124,585.8c-9.4,41.6-34,51.1-69.1,32.2l-189.2-140.1l-94.7,88 c-4.5,5.8-10.2,10.5-16.7,13.8c-6.5,3.3-13.7,5-21.1,5l13.2-189.2l350.1-317.1c16.1-13.2,0-20.8-22.8-7.6l-429.7,269.7l-189.2-58.7 c-40.7-12.3-41.6-40.7,8.5-59.6l729.7-283.9C1778.5,1258,1808.8,1278.8,1797.5,1329.9z"></path> </g> </svg>