<svg xmlns="http://www.w3.org/2000/svg" xmlns:xlink="http://www.w3.org/1999/xlink" id="Layer_1" x="0px" y="0px" viewBox="0 0 2851.1 3136.8" style="enable-background:new 0 0 2851.1 3136.8;" xml:space="preserve"> <style type="text/css"> .st0{fill:#13C5F0;} .st1{fill-rule:evenodd;clip-rule:evenodd;fill:#13C5F0;} </style> <g> <g> <g> <path class="st0" d="M1425.5,3139.7c-83.4,0-166.8-21.5-241.2-64.4l-943.2-544.6C92.4,2444.8,0,2284.8,0,2113V1023.9 C0,852.1,92.4,692,241.2,606.1l943.2-544.6c148.8-85.9,333.6-85.9,482.4,0l943.2,544.6c148.8,85.9,241.2,245.9,241.2,417.8V2113 c0,171.8-92.4,331.8-241.2,417.8l-943.2,544.6C1592.3,3118.3,1508.9,3139.7,1425.5,3139.7z M1425.5,63.2 c-72,0-144,18.6-208.2,55.6L274.1,663.3C145.8,737.5,66,875.6,66,1023.9V2113c0,148.3,79.8,286.4,208.2,360.6l943.2,544.6 c128.4,74.1,288,74.1,416.4,0l943.2-544.6c128.4-74.1,208.2-212.3,208.2-360.6V1023.9c0-148.3-79.8-286.4-208.2-360.6 l-943.2-544.6C1569.5,81.7,1497.5,63.2,1425.5,63.2z"></path> </g> </g> </g> <g id="SVGRepo_iconCarrier_00000049189110465098003760000011639483930716894903_"> <g id="Page-1"> <g id="Dribbble-Light-Preview" transform="translate(-60.000000, -7521.000000)"> <g id="icons" transform="translate(56.000000, 160.000000)"> <path id="twitter-_x5B__x23_154_x5D_" class="st1" d="M1149.5,9533.3c569.7,0,881.3-464.7,881.3-867.7c0-13.2,0-26.4-0.9-39.4 c60.6-43.1,112.9-96.6,154.5-157.9c-56.5,24.7-116.5,40.9-177.8,48c64.6-38.1,113-98,136.2-168.7 c-60.8,35.5-127.3,60.6-196.7,74c-117.3-122.8-313.5-128.7-438.3-13.2c-80.4,74.5-114.6,185.5-89.6,291.4 c-249-12.3-481.1-128.1-638.4-318.6c-82.2,139.3-40.2,317.5,95.9,407c-49.3-1.4-97.5-14.5-140.6-38.1v3.9 c0.1,145.1,104,270.1,248.5,298.9c-45.6,12.3-93.5,14-139.8,5.2c40.5,124.3,156.9,209.4,289.3,211.8 c-109.7,84.9-245.2,131-384.7,130.8c-24.6-0.1-49.2-1.5-73.7-4.4c141.7,89.5,306.5,137,474.8,136.7"></path> </g> </g> </g> </g> </svg>