<svg xmlns="http://www.w3.org/2000/svg" xmlns:xlink="http://www.w3.org/1999/xlink" id="Layer_1" x="0px" y="0px" viewBox="0 0 2851.1 3136.8" style="enable-background:new 0 0 2851.1 3136.8;" xml:space="preserve"> <style type="text/css"> .st0{fill:#13C5F0;} .st1{fill-rule:evenodd;clip-rule:evenodd;fill:#13C5F0;} </style> <g> <g> <g> <path class="st0" d="M1425.5,3139.7c-83.4,0-166.8-21.5-241.2-64.4l-943.2-544.6C92.4,2444.8,0,2284.8,0,2113V1023.9 C0,852.1,92.4,692,241.2,606.1l943.2-544.6c148.8-85.9,333.6-85.9,482.4,0l943.2,544.6c148.8,85.9,241.2,245.9,241.2,417.8V2113 c0,171.8-92.4,331.8-241.2,417.8l-943.2,544.6C1592.3,3118.3,1508.9,3139.7,1425.5,3139.7z M1425.5,63.2 c-72,0-144,18.6-208.2,55.6L274.1,663.3C145.8,737.5,66,875.6,66,1023.9V2113c0,148.3,79.8,286.4,208.2,360.6l943.2,544.6 c128.4,74.1,288,74.1,416.4,0l943.2-544.6c128.4-74.1,208.2-212.3,208.2-360.6V1023.9c0-148.3-79.8-286.4-208.2-360.6 l-943.2-544.6C1569.5,81.7,1497.5,63.2,1425.5,63.2z"></path> </g> </g> </g> <g id="SVGRepo_iconCarrier"> <g id="Page-1"> <g id="Dribbble-Light-Preview" transform="translate(-385.000000, -7399.000000)"> <g id="icons" transform="translate(56.000000, 160.000000)"> <path id="facebook-_x5B__x23_176_x5D_" class="st1" d="M1948.8,9873.8v-959.7h291.4l47.6-426.5h-339v-207.8 c0-109.8,2.8-218.8,156.3-218.8h155.5v-305c0-4.6-133.5-14.9-268.6-14.9c-282.1,0-458.8,176.7-458.8,501.2v245.2h-311.7v426.5 h311.7v959.7H1948.8z"></path> </g> </g> </g> </g> </svg>